<svg width="73" height="73" viewBox="0 0 73 73" fill="none" xmlns="http://www.w3.org/2000/svg">
<path d="M23.0706 58.2072H17.3386C8.56157 57.5803 4.62103 50.8334 4.62103 44.8328C4.62103 38.8322 8.56161 32.0554 17.1893 31.4583C18.4133 31.3389 19.488 32.2942 19.5776 33.5481C19.6672 34.7721 18.7418 35.8468 17.488 35.9364C11.6964 36.3543 9.09909 40.7129 9.09909 44.8626C9.09909 49.0123 11.6964 53.371 17.488 53.7889H23.0706C24.2946 53.7889 25.3097 54.8039 25.3097 56.0279C25.3097 57.2519 24.2946 58.2072 23.0706 58.2072Z" fill="#292D32"/>
<path d="M50.5647 58.2071C50.505 58.2071 50.4752 58.2071 50.4155 58.2071C49.1915 58.2071 48.0571 57.192 48.0571 55.968C48.0571 54.6843 49.0124 53.729 50.2663 53.729C53.9383 53.729 57.2222 52.4453 59.7896 50.1465C64.4468 46.0864 64.7453 40.2351 63.4915 36.1153C62.2376 32.0253 58.7447 27.3383 52.6545 26.5919C51.6694 26.4725 50.8931 25.7262 50.714 24.741C49.5198 17.5761 45.6688 12.6204 39.8175 10.8292C33.787 8.94838 26.7414 10.7993 22.3529 15.3968C18.0838 19.845 17.0987 26.0844 19.5766 32.9508C19.9945 34.1151 19.3976 35.3988 18.2333 35.8167C17.069 36.2347 15.7852 35.6376 15.3673 34.4733C12.352 26.0546 13.7253 17.9941 19.1289 12.3219C24.6518 6.53023 33.5183 4.23147 41.131 6.56006C48.1168 8.70953 53.0426 14.4713 54.8338 22.4721C60.924 23.8454 65.82 28.4727 67.7605 34.8614C69.8801 41.8174 67.9695 48.9823 62.7451 53.52C59.4314 56.5054 55.1025 58.2071 50.5647 58.2071Z" fill="#292D32"/>
<path d="M36.6234 66.9842C30.6228 66.9842 25.0103 63.7898 21.9354 58.6251C21.607 58.1176 21.2786 57.5205 21.0099 56.8638C19.9949 54.7441 19.4575 52.326 19.4575 49.8183C19.4575 40.3546 27.1597 32.6524 36.6234 32.6524C46.087 32.6524 53.7893 40.3546 53.7893 49.8183C53.7893 52.3558 53.252 54.7441 52.1773 56.9533C51.9384 57.5205 51.61 58.1176 51.2518 58.6848C48.2366 63.7898 42.624 66.9842 36.6234 66.9842ZM36.6234 37.1304C29.6376 37.1304 23.9355 42.8325 23.9355 49.8183C23.9355 51.6692 24.3237 53.4007 25.07 54.983C25.3088 55.4905 25.5177 55.9084 25.7566 56.2965C28.0255 60.1477 32.1751 62.5061 36.5935 62.5061C41.0119 62.5061 45.1615 60.1477 47.4005 56.3562C47.6692 55.9084 47.9082 55.4905 48.0873 55.0725C48.8934 53.4306 49.2813 51.699 49.2813 49.8481C49.3112 42.8325 43.6092 37.1304 36.6234 37.1304Z" fill="#292D32"/>
<path d="M34.9213 55.0127C34.3541 55.0127 33.787 54.8037 33.3392 54.3559L30.3835 51.4004C29.5177 50.5346 29.5177 49.1016 30.3835 48.2359C31.2493 47.3701 32.6822 47.3701 33.548 48.2359L34.9811 49.6688L39.7576 45.2505C40.6831 44.4146 42.0862 44.4743 42.9221 45.3699C43.758 46.2655 43.6984 47.6985 42.8028 48.5344L36.4439 54.4156C35.9961 54.8037 35.4587 55.0127 34.9213 55.0127Z" fill="#292D32"/>
</svg>
