<svg width="280" height="166" viewBox="0 0 280 166" fill="none" xmlns="http://www.w3.org/2000/svg">
<rect width="280" height="166" fill="#0066CC"/>
<path d="M146.25 104.875C146.25 106.533 145.592 108.122 144.419 109.294C143.247 110.467 141.658 111.125 140 111.125C138.342 111.125 136.753 110.467 135.581 109.294C134.408 108.122 133.75 106.533 133.75 104.875C133.75 103.217 134.408 101.628 135.581 100.456C136.753 99.2835 138.342 98.625 140 98.625C141.658 98.625 143.247 99.2835 144.419 100.456C145.592 101.628 146.25 103.217 146.25 104.875ZM144.687 53.3125C144.687 52.0693 144.194 50.877 143.315 49.9979C142.435 49.1189 141.243 48.625 140 48.625C138.757 48.625 137.565 49.1189 136.685 49.9979C135.806 50.877 135.312 52.0693 135.312 53.3125V81.4375C135.312 82.6807 135.806 83.873 136.685 84.7521C137.565 85.6311 138.757 86.125 140 86.125C141.243 86.125 142.435 85.6311 143.315 84.7521C144.194 83.873 144.687 82.6807 144.687 81.4375V53.3125Z" fill="white"/>
<path d="M136.625 11.9812C138.819 11.2696 141.181 11.2696 143.375 11.9812L194.938 28.7C197.135 29.4128 199.05 30.803 200.409 32.6713C201.767 34.5395 202.499 36.79 202.5 39.1V70.5C202.5 109.187 178.938 137.406 143.744 150.688C141.331 151.596 138.669 151.596 136.256 150.688C101.069 137.4 77.5 109.187 77.5 70.5V39.1C77.5 34.35 80.5625 30.1625 85.0625 28.7L136.625 11.9812ZM140.481 20.8937C140.168 20.7925 139.832 20.7925 139.519 20.8937L87.9563 37.625C87.6429 37.7264 87.3696 37.9243 87.1755 38.1903C86.9813 38.4563 86.8761 38.7769 86.875 39.1062V70.5C86.875 104.631 107.375 129.769 139.563 141.913C139.845 142.018 140.155 142.018 140.438 141.913C172.625 129.769 193.125 104.625 193.125 70.5V39.1C193.124 38.7706 193.019 38.4501 192.825 38.1841C192.63 37.918 192.357 37.7202 192.044 37.6187L140.481 20.8937Z" fill="white"/>
</svg>
