<svg width="22" height="24" viewBox="0 0 22 24" fill="none" xmlns="http://www.w3.org/2000/svg">
<path d="M10.56 0.141905C10.6878 0.0496517 10.8414 0 10.999 0C11.1566 0 11.3102 0.0496517 11.438 0.141905C12.081 0.605905 13.526 1.45391 15.335 2.18291C17.145 2.91291 19.257 3.49991 21.248 3.49991C21.4469 3.49991 21.6377 3.57892 21.7783 3.71958C21.919 3.86023 21.998 4.05099 21.998 4.24991V12.0019C21.998 15.0289 20.295 17.8429 18.16 19.9519C16.027 22.0589 13.333 23.5919 11.127 23.9759L10.999 23.9979L10.87 23.9759C8.665 23.5909 5.97 22.0589 3.837 19.9519C1.703 17.8429 0 15.0289 0 12.0019V4.24991C0 4.05099 0.0790175 3.86023 0.21967 3.71958C0.360322 3.57892 0.551088 3.49991 0.75 3.49991C2.741 3.49991 4.853 2.91291 6.664 2.18291C8.472 1.45291 9.917 0.604905 10.56 0.141905ZM1.5 4.97691V12.0019C1.5 14.4719 2.908 16.9249 4.891 18.8839C6.83 20.7999 9.193 22.1179 11 22.4749C12.806 22.1189 15.17 20.7999 17.107 18.8849C19.09 16.9259 20.499 14.4739 20.499 12.0029V4.97691C18.485 4.85291 16.467 4.25691 14.775 3.57391C13.186 2.93391 11.841 2.19891 11 1.65591C10.16 2.19891 8.814 2.93391 7.226 3.57391C5.533 4.25691 3.515 4.85391 1.5 4.97691Z" fill="white"/>
<path d="M16.5452 6.45436C16.4012 6.31031 16.2302 6.19604 16.0419 6.11808C15.8537 6.04012 15.652 6 15.4483 6C15.2445 6 15.0428 6.04012 14.8546 6.11808C14.6664 6.19604 14.4954 6.31031 14.3513 6.45436L14.3381 6.46754C14.2648 6.42841 14.1808 6.41388 14.0985 6.42611C14.0163 6.43835 13.9401 6.47668 13.8813 6.53548C13.8225 6.59427 13.7842 6.6704 13.772 6.75264C13.7597 6.83488 13.7743 6.91887 13.8134 6.99223L10.5107 10.2947L10.4541 10.2381C10.4177 10.2017 10.3684 10.1813 10.317 10.1813C10.2656 10.1813 10.2163 10.2017 10.1799 10.2381L9.90532 10.5122C9.86897 10.5486 9.84855 10.5979 9.84855 10.6493C9.84855 10.7007 9.86897 10.7501 9.90532 10.7864L9.96233 10.843L7.35849 13.4467C7.30443 13.5007 7.26155 13.5648 7.23229 13.6354C7.20303 13.706 7.18798 13.7817 7.18798 13.8581C7.18798 13.9346 7.20303 14.0102 7.23229 14.0808C7.26155 14.1514 7.30443 14.2156 7.35849 14.2696L6.85549 14.7722C6.73491 14.8925 6.64224 15.0379 6.58401 15.198L6.00965 16.7833C5.99919 16.8122 5.99719 16.8434 6.00387 16.8734C6.01055 16.9034 6.02564 16.9309 6.04737 16.9526C6.0691 16.9744 6.09657 16.9895 6.12657 16.9961C6.15657 17.0028 6.18785 17.0008 6.21675 16.9904L7.80177 16.4141C7.96153 16.356 8.10662 16.2636 8.22683 16.1434L8.72983 15.6404C8.78386 15.6945 8.848 15.7374 8.91861 15.7666C8.98921 15.7959 9.06489 15.8109 9.14131 15.8109C9.21774 15.8109 9.29341 15.7959 9.36402 15.7666C9.43462 15.7374 9.49877 15.6945 9.55279 15.6404L12.1566 13.0368L12.1877 13.0678C12.224 13.104 12.2732 13.1244 12.3246 13.1244C12.3759 13.1244 12.4251 13.104 12.4615 13.0678L12.7356 12.7933C12.772 12.7569 12.7924 12.7076 12.7924 12.6562C12.7924 12.6048 12.772 12.5554 12.7356 12.5191L12.705 12.4881L14.2578 10.9357C14.219 11.0183 14.2104 11.1119 14.2338 11.2001C14.2571 11.2884 14.3108 11.3655 14.3855 11.4181C14.4601 11.4706 14.5509 11.4951 14.6418 11.4873C14.7327 11.4795 14.818 11.4399 14.8826 11.3755L16.8023 9.45589C16.8751 9.38317 16.9159 9.28455 16.9159 9.18172C16.9159 9.07889 16.8751 8.98027 16.8023 8.90755L16.5441 8.64928L16.5456 8.64811C16.6897 8.50407 16.8039 8.33307 16.8819 8.14486C16.9599 7.95666 17 7.75495 17 7.55124C17 7.34752 16.9599 7.14581 16.8819 6.95761C16.8039 6.7694 16.6893 6.5984 16.5452 6.45436ZM15.9957 8.10093L14.8989 7.00425L14.9001 7.0027C15.0456 6.85722 15.2429 6.77549 15.4487 6.77549C15.5505 6.77549 15.6514 6.79555 15.7455 6.83454C15.8397 6.87352 15.9252 6.93067 15.9972 7.0027C16.0693 7.07473 16.1264 7.16025 16.1654 7.25437C16.2044 7.34849 16.2245 7.44936 16.2245 7.55124C16.2245 7.65311 16.2044 7.75398 16.1654 7.8481C16.1264 7.94222 16.0693 8.02774 15.9972 8.09977L15.9957 8.10093ZM14.3505 7.55259L15.4473 8.64928L12.1566 11.9401L11.0595 10.843L14.3505 7.55259ZM8.04455 13.8581L10.5111 11.3918L11.6082 12.4884L9.1417 14.9548L8.04455 13.8581ZM7.77036 15.7777C7.69759 15.8505 7.59889 15.8914 7.49598 15.8914C7.39306 15.8914 7.29436 15.8505 7.22159 15.7777C7.14882 15.705 7.10794 15.6063 7.10794 15.5034C7.10794 15.4004 7.14882 15.3018 7.22159 15.229C7.25762 15.193 7.3004 15.1644 7.34748 15.1449C7.39456 15.1254 7.44502 15.1153 7.49598 15.1153C7.54693 15.1153 7.59739 15.1254 7.64447 15.1449C7.69155 15.1644 7.73433 15.193 7.77036 15.229C7.80639 15.265 7.83498 15.3078 7.85448 15.3549C7.87398 15.4019 7.88401 15.4524 7.88401 15.5034C7.88401 15.5543 7.87398 15.6048 7.85448 15.6518C7.83498 15.6989 7.80639 15.7417 7.77036 15.7777Z" fill="white"/>
</svg>
