<svg width="280" height="166" viewBox="0 0 280 166" fill="none" xmlns="http://www.w3.org/2000/svg">
<path d="M0 0H280V166H0V0Z" fill="#0066CC"/>
<path d="M137.36 11.8514C138.127 11.2979 139.048 11 139.994 11C140.94 11 141.861 11.2979 142.628 11.8514C146.486 14.6354 155.156 19.7235 166.01 24.0975C176.87 28.4775 189.542 31.9995 201.488 31.9995C202.681 31.9995 203.826 32.4735 204.67 33.3175C205.514 34.1614 205.988 35.3059 205.988 36.4995V83.0114C205.988 101.173 195.77 118.057 182.96 130.711C170.162 143.353 153.998 152.551 140.762 154.855L139.994 154.987L139.22 154.855C125.99 152.545 109.82 143.353 97.022 130.711C84.218 118.057 74 101.173 74 83.0114V36.4995C74 35.3059 74.4741 34.1614 75.318 33.3175C76.1619 32.4735 77.3065 31.9995 78.5 31.9995C90.446 31.9995 103.118 28.4775 113.984 24.0975C124.832 19.7175 133.502 14.6294 137.36 11.8514ZM83 40.8615V83.0114C83 97.8314 91.448 112.549 103.346 124.303C114.98 135.799 129.158 143.707 140 145.849C150.836 143.713 165.02 135.799 176.642 124.309C188.54 112.555 196.994 97.8434 196.994 83.0174V40.8615C184.91 40.1175 172.802 36.5415 162.65 32.4435C153.116 28.6035 145.046 24.1935 140 20.9355C134.96 24.1935 126.884 28.6035 117.356 32.4435C107.198 36.5415 95.09 40.1235 83 40.8615Z" fill="white"/>
<path d="M173.271 49.7262C172.407 48.8619 171.381 48.1762 170.251 47.7085C169.122 47.2407 167.912 47 166.69 47C165.467 47 164.257 47.2407 163.128 47.7085C161.998 48.1762 160.972 48.8619 160.108 49.7262L160.029 49.8052C159.589 49.5705 159.085 49.4833 158.591 49.5567C158.098 49.6301 157.641 49.8601 157.288 50.2129C156.935 50.5656 156.705 51.0224 156.632 51.5158C156.558 52.0093 156.646 52.5132 156.88 52.9534L137.064 72.7682L136.725 72.4286C136.506 72.2102 136.21 72.0878 135.902 72.0878C135.594 72.0878 135.298 72.2102 135.079 72.4286L133.432 74.0732C133.214 74.2916 133.091 74.5874 133.091 74.8958C133.091 75.2042 133.214 75.5006 133.432 75.7184L133.774 76.058L118.151 91.6802C117.827 92.0042 117.569 92.3888 117.394 92.8124C117.218 93.236 117.128 93.6902 117.128 94.1486C117.128 94.6076 117.218 95.0612 117.394 95.4848C117.569 95.9084 117.827 96.2936 118.151 96.6176L115.133 99.6332C114.409 100.355 113.853 101.227 113.504 102.188L110.058 111.7C109.995 111.873 109.983 112.06 110.023 112.24C110.063 112.42 110.154 112.585 110.284 112.716C110.415 112.846 110.579 112.937 110.759 112.977C110.939 113.017 111.127 113.005 111.301 112.942L120.811 109.485C121.769 109.136 122.64 108.582 123.361 107.86L126.379 104.842C126.703 105.167 127.088 105.424 127.512 105.6C127.935 105.775 128.389 105.865 128.848 105.865C129.306 105.865 129.76 105.775 130.184 105.6C130.608 105.424 130.993 105.167 131.317 104.842L146.94 89.2208L147.126 89.4068C147.344 89.624 147.639 89.7464 147.948 89.7464C148.255 89.7464 148.551 89.624 148.769 89.4068L150.414 87.7598C150.632 87.5414 150.754 87.2456 150.754 86.9372C150.754 86.6288 150.632 86.3324 150.414 86.1146L150.23 85.9286L159.547 76.6142C159.314 77.1098 159.262 77.6714 159.403 78.2006C159.543 78.7304 159.865 79.193 160.313 79.5086C160.761 79.8236 161.305 79.9706 161.851 79.9238C162.396 79.877 162.908 79.6394 163.296 79.253L174.814 67.7353C175.251 67.299 175.495 66.7073 175.495 66.0903C175.495 65.4733 175.251 64.8816 174.814 64.4453L173.265 62.8957L173.274 62.8887C174.138 62.0244 174.823 60.9984 175.291 59.8692C175.759 58.74 176 57.5297 176 56.3074C176 55.0851 175.759 53.8749 175.291 52.7457C174.823 51.6164 174.136 50.5904 173.271 49.7262ZM169.974 59.6056L163.393 53.0255L163.401 53.0162C164.274 52.1433 165.457 51.6529 166.692 51.6529C167.303 51.6529 167.908 51.7733 168.473 52.0072C169.038 52.2411 169.551 52.584 169.983 53.0162C170.416 53.4484 170.758 53.9615 170.992 54.5262C171.226 55.0909 171.347 55.6962 171.347 56.3074C171.347 56.9187 171.226 57.5239 170.992 58.0886C170.758 58.6533 170.416 59.1664 169.983 59.5986L169.974 59.6056ZM160.103 56.3155L166.684 62.8957L146.94 82.6406L140.357 76.058L160.103 56.3155ZM122.267 94.1486L137.067 79.3508L143.649 85.9304L128.85 100.729L122.267 94.1486ZM120.622 105.666C120.186 106.103 119.593 106.348 118.976 106.348C118.358 106.348 117.766 106.103 117.33 105.666C116.893 105.23 116.648 104.638 116.648 104.02C116.648 103.402 116.893 102.811 117.33 102.374C117.546 102.158 117.802 101.986 118.085 101.869C118.367 101.752 118.67 101.692 118.976 101.692C119.282 101.692 119.584 101.752 119.867 101.869C120.149 101.986 120.406 102.158 120.622 102.374C120.838 102.59 121.01 102.847 121.127 103.129C121.244 103.411 121.304 103.714 121.304 104.02C121.304 104.326 121.244 104.629 121.127 104.911C121.01 105.193 120.838 105.45 120.622 105.666Z" fill="white"/>
</svg>
